<?xml version="1.0" encoding="utf-8"?>
<svg xmlns="http://www.w3.org/2000/svg" style="margin: auto; display: block; shape-rendering: auto; animation-play-state: running; animation-delay: 0s; background: none;" width="255" height="301" preserveAspectRatio="xMidYMid">
<style type="text/css" style="animation-play-state: running; animation-delay: 0s;">
  text {
    text-anchor: middle; font-size: 27px; opacity: 0;
  }
</style>
<g style="transform-origin: 127.5px 150.5px; transform: scale(1); animation-play-state: running; animation-delay: 0s;">
<g transform="translate(127.5,150.5)" style="animation-play-state: running; animation-delay: 0s;">
  <g transform="translate(0,0)" style="animation-play-state: running; animation-delay: 0s;"><g class="path" style="opacity: 1; transform-origin: -109.935px -1.3825px; animation: 1s linear -0.621176s infinite normal forwards running blink-27a77ad9-b927-41d8-880a-0c8bbdb6b5f9;"><path d="M19.39-14.28L19.39-14.28L17.14-13.33L17.14-13.33Q16.88-14.19 16.43-14.90L16.43-14.90L16.43-14.90Q15.99-15.61 15.38-16.12L15.38-16.12L15.38-16.12Q14.77-16.62 13.99-16.91L13.99-16.91L13.99-16.91Q13.21-17.19 12.29-17.19L12.29-17.19L12.29-17.19Q11.30-17.19 10.47-16.86L10.47-16.86L10.47-16.86Q9.65-16.53 9.00-15.97L9.00-15.97L9.00-15.97Q8.35-15.41 7.86-14.66L7.86-14.66L7.86-14.66Q7.37-13.91 7.05-13.06L7.05-13.06L7.05-13.06Q6.72-12.21 6.56-11.30L6.56-11.30L6.56-11.30Q6.39-10.39 6.39-9.52L6.39-9.52L6.39-9.52Q6.39-8.13 6.72-6.76L6.72-6.76L6.72-6.76Q7.04-5.39 7.75-4.30L7.75-4.30L7.75-4.30Q8.45-3.20 9.57-2.52L9.57-2.52L9.57-2.52Q10.69-1.85 12.29-1.85L12.29-1.85L12.29-1.85Q13.16-1.85 13.65-2.23L13.65-2.23L13.65-2.23Q14.13-2.62 14.13-3.60L14.13-3.60L14.13-9.43L19.37-9.43L19.37 0L17.85 0L16.93-1.49L16.93-1.49Q15.66-0.53 14.14-0.07L14.14-0.07L14.14-0.07Q12.62 0.38 11.03 0.38L11.03 0.38L11.03 0.38Q9.64 0.38 8.35 0.04L8.35 0.04L8.35 0.04Q7.07-0.30 5.96-0.94L5.96-0.94L5.96-0.94Q4.85-1.57 3.95-2.47L3.95-2.47L3.95-2.47Q3.05-3.36 2.41-4.46L2.41-4.46L2.41-4.46Q1.77-5.55 1.42-6.84L1.42-6.84L1.42-6.84Q1.07-8.12 1.07-9.52L1.07-9.52L1.07-9.52Q1.07-10.92 1.42-12.20L1.42-12.20L1.42-12.20Q1.77-13.49 2.41-14.59L2.41-14.59L2.41-14.59Q3.05-15.69 3.95-16.58L3.95-16.58L3.95-16.58Q4.85-17.48 5.96-18.11L5.96-18.11L5.96-18.11Q7.07-18.75 8.35-19.09L8.35-19.09L8.35-19.09Q9.64-19.43 11.03-19.43L11.03-19.43L11.03-19.43Q12.38-19.43 13.66-19.12L13.66-19.12L13.66-19.12Q14.95-18.80 16.06-18.16L16.06-18.16L16.06-18.16Q17.17-17.52 18.03-16.55L18.03-16.55L18.03-16.55Q18.89-15.58 19.39-14.28" fill="#353535" stroke="none" stroke-width="none" transform="translate(-120.16500854492188,8.142501543830413)" style="fill: rgb(53, 53, 53); animation-play-state: running; animation-delay: 0s;"></path></g><g class="path" style="opacity: 1; transform-origin: -90.52px 0.707502px; animation: 1s linear -0.582353s infinite normal forwards running blink-27a77ad9-b927-41d8-880a-0c8bbdb6b5f9;"><path d="M21.86-6.51L21.86-6.51L21.86-6.51Q21.86-7.55 22.04-8.67L22.04-8.67L22.04-8.67Q22.21-9.80 22.55-10.92L22.55-10.92L22.55-10.92Q22.89-12.04 23.36-13.13L23.36-13.13L23.36-13.13Q23.84-14.23 24.43-15.23L24.43-15.23L27.69-15.23L27.69-15.23Q27.36-14.24 27.10-13.16L27.10-13.16L27.10-13.16Q26.84-12.09 26.66-11.01L26.66-11.01L26.66-11.01Q26.49-9.94 26.39-8.91L26.39-8.91L26.39-8.91Q26.29-7.88 26.29-7.00L26.29-7.00L26.29-7.00Q26.29-6.49 26.33-5.90L26.33-5.90L26.33-5.90Q26.38-5.31 26.50-4.73L26.50-4.73L26.50-4.73Q26.62-4.14 26.84-3.60L26.84-3.60L26.84-3.60Q27.05-3.06 27.40-2.64L27.40-2.64L27.40-2.64Q27.74-2.23 28.23-1.98L28.23-1.98L28.23-1.98Q28.73-1.74 29.40-1.74L29.40-1.74L29.40-1.74Q30.06-1.74 30.58-2.04L30.58-2.04L30.58-2.04Q31.10-2.33 31.50-2.81L31.50-2.81L31.50-2.81Q31.89-3.30 32.17-3.92L32.17-3.92L32.17-3.92Q32.44-4.54 32.62-5.19L32.62-5.19L32.62-5.19Q32.80-5.84 32.89-6.47L32.89-6.47L32.89-6.47Q32.97-7.09 32.97-7.59L32.97-7.59L32.97-15.23L37.43-15.23L37.43 0L35.71 0L33.67-3.55L33.67-3.55Q33.29-2.66 32.74-1.94L32.74-1.94L32.74-1.94Q32.19-1.23 31.50-0.71L31.50-0.71L31.50-0.71Q30.80-0.20 29.95 0.08L29.95 0.08L29.95 0.08Q29.10 0.36 28.11 0.36L28.11 0.36L28.11 0.36Q26.53 0.36 25.35-0.16L25.35-0.16L25.35-0.16Q24.18-0.67 23.40-1.58L23.40-1.58L23.40-1.58Q22.62-2.49 22.24-3.75L22.24-3.75L22.24-3.75Q21.86-5.01 21.86-6.51" fill="#353535" stroke="none" stroke-width="none" transform="translate(-120.16500854492188,8.142501543830413)" style="fill: rgb(102, 102, 102); animation-play-state: running; animation-delay: 0s;"></path></g><g class="path" style="opacity: 1; transform-origin: -73.4px 0.527502px; animation: 1s linear -0.543529s infinite normal forwards running blink-27a77ad9-b927-41d8-880a-0c8bbdb6b5f9;"><path d="M53.21-1.77L53.21 0L40.32 0L40.32-1.77L40.32-1.77L48.29-13.46L40.32-13.46L40.32-15.23L53.21-15.23L53.21-13.46L45.23-1.77L53.21-1.77" fill="#353535" stroke="none" stroke-width="none" transform="translate(-120.16500854492188,8.142501543830413)" style="fill: rgb(53, 53, 53); animation-play-state: running; animation-delay: 0s;"></path></g><g class="path" style="opacity: 1; transform-origin: -61.865px -2.9775px; animation: 1s linear -0.504706s infinite normal forwards running blink-27a77ad9-b927-41d8-880a-0c8bbdb6b5f9;"><path d="M60.53-17.61L60.53 0L56.07 0L56.07-22.24L57.78-22.24L60.53-17.61" fill="#353535" stroke="none" stroke-width="none" transform="translate(-120.16500854492188,8.142501543830413)" style="fill: rgb(102, 102, 102); animation-play-state: running; animation-delay: 0s;"></path></g><g class="path" style="opacity: 1; transform-origin: -53.675px -10.7575px; animation: 1s linear -0.465882s infinite normal forwards running blink-27a77ad9-b927-41d8-880a-0c8bbdb6b5f9;"><path d="M68.92-18.91L68.92-18.91L68.92-18.91Q68.92-18.40 68.73-17.96L68.73-17.96L68.73-17.96Q68.54-17.51 68.21-17.18L68.21-17.18L68.21-17.18Q67.88-16.85 67.43-16.66L67.43-16.66L67.43-16.66Q66.99-16.47 66.48-16.47L66.48-16.47L66.48-16.47Q65.98-16.47 65.54-16.66L65.54-16.66L65.54-16.66Q65.10-16.85 64.77-17.18L64.77-17.18L64.77-17.18Q64.44-17.51 64.25-17.96L64.25-17.96L64.25-17.96Q64.06-18.40 64.06-18.91L64.06-18.91L64.06-18.91Q64.06-19.41 64.25-19.85L64.25-19.85L64.25-19.85Q64.44-20.29 64.77-20.62L64.77-20.62L64.77-20.62Q65.10-20.95 65.54-21.14L65.54-21.14L65.54-21.14Q65.98-21.33 66.48-21.33L66.48-21.33L66.48-21.33Q66.99-21.33 67.43-21.14L67.43-21.14L67.43-21.14Q67.88-20.95 68.21-20.62L68.21-20.62L68.21-20.62Q68.54-20.29 68.73-19.85L68.73-19.85L68.73-19.85Q68.92-19.41 68.92-18.91" fill="#353535" stroke="none" stroke-width="none" transform="translate(-120.16500854492188,8.142501543830413)" style="fill: rgb(53, 53, 53); animation-play-state: running; animation-delay: 0s;"></path></g><g class="path" style="opacity: 1; transform-origin: -53.67px 0.537502px; animation: 1s linear -0.427059s infinite normal forwards running blink-27a77ad9-b927-41d8-880a-0c8bbdb6b5f9;"><path d="M68.73-15.21L68.73 0L64.26 0L64.26-15.21L68.73-15.21" fill="#353535" stroke="none" stroke-width="none" transform="translate(-120.16500854492188,8.142501543830413)" style="fill: rgb(102, 102, 102); animation-play-state: running; animation-delay: 0s;"></path></g><g class="path" style="opacity: 1; transform-origin: -40.23px -2.2725px; animation: 1s linear -0.388235s infinite normal forwards running blink-27a77ad9-b927-41d8-880a-0c8bbdb6b5f9;"><path d="M76.91-5.12L76.91 0L72.46 0L72.46-20.83L76.91-20.83L76.91-7.16L76.91-7.16Q78.01-7.95 79.07-8.90L79.07-8.90L79.07-8.90Q80.13-9.85 81.09-10.90L81.09-10.90L81.09-10.90Q82.05-11.94 82.88-13.04L82.88-13.04L82.88-13.04Q83.70-14.13 84.32-15.23L84.32-15.23L87.35-15.23L87.35-15.23Q86.43-13.67 85.17-12.12L85.17-12.12L85.17-12.12Q83.90-10.57 82.41-9.16L82.41-9.16L87.41 0L82.49 0L78.94-6.35L78.94-6.35Q77.95-5.68 76.91-5.12L76.91-5.12" fill="#353535" stroke="none" stroke-width="none" transform="translate(-120.16500854492188,8.142501543830413)" style="fill: rgb(53, 53, 53); animation-play-state: running; animation-delay: 0s;"></path></g><g class="path" style="opacity: 1; transform-origin: -13.84px -1.3475px; animation: 1s linear -0.349412s infinite normal forwards running blink-27a77ad9-b927-41d8-880a-0c8bbdb6b5f9;"><path d="M100.08-13.03L100.08 0L97.65 0L97.65-18.98L101.05-18.98L112.59-5.95L112.59-18.98L115.00-18.98L115.00 0L111.60 0L100.08-13.03" fill="#353535" stroke="none" stroke-width="none" transform="translate(-120.16500854492188,8.142501543830413)" style="fill: rgb(102, 102, 102); animation-play-state: running; animation-delay: 0s;"></path></g><g class="path" style="opacity: 1; transform-origin: 5.43499px 0.492502px; animation: 1s linear -0.310588s infinite normal forwards running blink-27a77ad9-b927-41d8-880a-0c8bbdb6b5f9;"><path d="M122.38-7.22L122.38-7.22L122.38-7.22Q123.20-7.04 124.02-6.93L124.02-6.93L124.02-6.93Q124.84-6.83 125.67-6.83L125.67-6.83L125.67-6.83Q126.54-6.83 127.28-6.99L127.28-6.99L127.28-6.99Q128.03-7.16 128.57-7.55L128.57-7.55L128.57-7.55Q129.12-7.94 129.44-8.58L129.44-8.58L129.44-8.58Q129.75-9.23 129.75-10.19L129.75-10.19L129.75-10.19Q129.75-10.97 129.54-11.61L129.54-11.61L129.54-11.61Q129.33-12.26 128.92-12.72L128.92-12.72L128.92-12.72Q128.50-13.18 127.89-13.44L127.89-13.44L127.89-13.44Q127.29-13.70 126.48-13.70L126.48-13.70L126.48-13.70Q125.73-13.70 125.13-13.42L125.13-13.42L125.13-13.42Q124.53-13.14 124.08-12.68L124.08-12.68L124.08-12.68Q123.62-12.21 123.30-11.59L123.30-11.59L123.30-11.59Q122.98-10.97 122.77-10.30L122.77-10.30L122.77-10.30Q122.55-9.62 122.46-8.94L122.46-8.94L122.46-8.94Q122.37-8.25 122.37-7.65L122.37-7.65L122.37-7.65Q122.37-7.54 122.37-7.44L122.37-7.44L122.37-7.44Q122.37-7.33 122.38-7.22zM133.37-10.23L133.37-10.23L133.37-10.23Q133.37-9.29 133.06-8.56L133.06-8.56L133.06-8.56Q132.76-7.83 132.24-7.28L132.24-7.28L132.24-7.28Q131.72-6.72 131.03-6.34L131.03-6.34L131.03-6.34Q130.35-5.96 129.57-5.72L129.57-5.72L129.57-5.72Q128.79-5.47 127.97-5.37L127.97-5.37L127.97-5.37Q127.14-5.26 126.36-5.26L126.36-5.26L126.36-5.26Q125.38-5.26 124.41-5.40L124.41-5.40L124.41-5.40Q123.45-5.54 122.52-5.84L122.52-5.84L122.52-5.84Q122.66-4.97 122.98-4.19L122.98-4.19L122.98-4.19Q123.29-3.40 123.82-2.81L123.82-2.81L123.82-2.81Q124.35-2.23 125.12-1.89L125.12-1.89L125.12-1.89Q125.89-1.54 126.94-1.54L126.94-1.54L126.94-1.54Q127.64-1.54 128.28-1.75L128.28-1.75L128.28-1.75Q128.91-1.96 129.44-2.35L129.44-2.35L129.44-2.35Q129.96-2.73 130.37-3.26L130.37-3.26L130.37-3.26Q130.77-3.78 131.02-4.43L131.02-4.43L132.94-3.72L132.94-3.72Q132.51-2.68 131.75-1.92L131.75-1.92L131.75-1.92Q130.99-1.16 130.04-0.67L130.04-0.67L130.04-0.67Q129.08-0.17 128.01 0.07L128.01 0.07L128.01 0.07Q126.93 0.30 125.88 0.30L125.88 0.30L125.88 0.30Q124.14 0.30 122.66-0.28L122.66-0.28L122.66-0.28Q121.18-0.87 120.12-1.92L120.12-1.92L120.12-1.92Q119.05-2.98 118.44-4.44L118.44-4.44L118.44-4.44Q117.83-5.91 117.83-7.65L117.83-7.65L117.83-7.65Q117.83-9.39 118.44-10.85L118.44-10.85L118.44-10.85Q119.05-12.31 120.12-13.37L120.12-13.37L120.12-13.37Q121.18-14.42 122.66-15.01L122.66-15.01L122.66-15.01Q124.14-15.60 125.88-15.60L125.88-15.60L125.88-15.60Q126.72-15.60 127.60-15.48L127.60-15.48L127.60-15.48Q128.49-15.36 129.32-15.10L129.32-15.10L129.32-15.10Q130.15-14.84 130.89-14.44L130.89-14.44L130.89-14.44Q131.63-14.03 132.17-13.43L132.17-13.43L132.17-13.43Q132.72-12.83 133.04-12.04L133.04-12.04L133.04-12.04Q133.37-11.25 133.37-10.23" fill="#353535" stroke="none" stroke-width="none" transform="translate(-120.16500854492188,8.142501543830413)" style="fill: rgb(53, 53, 53); animation-play-state: running; animation-delay: 0s;"></path></g><g class="path" style="opacity: 1; transform-origin: 20.405px -2.2725px; animation: 1s linear -0.271765s infinite normal forwards running blink-27a77ad9-b927-41d8-880a-0c8bbdb6b5f9;"><path d="M141.88-13.46L141.88 0L137.41 0L137.41-13.46L134.64-13.46L134.64-15.23L137.41-15.23L137.41-20.83L141.88-20.83L141.88-15.23L146.50-15.23L146.50-13.46L141.88-13.46" fill="#353535" stroke="none" stroke-width="none" transform="translate(-120.16500854492188,8.142501543830413)" style="fill: rgb(102, 102, 102); animation-play-state: running; animation-delay: 0s;"></path></g><g class="path" style="opacity: 1; transform-origin: 38px 0.527502px; animation: 1s linear -0.232941s infinite normal forwards running blink-27a77ad9-b927-41d8-880a-0c8bbdb6b5f9;"><path d="M158.07-9.25L155.55 0L151.55 0L147.38-15.23L151.84-15.23L154.45-4.55L156.62-15.23L160.63-15.23L163.29-4.26L165.86-15.23L168.95-15.23L164.33 0L160.33 0L158.07-9.25" fill="#353535" stroke="none" stroke-width="none" transform="translate(-120.16500854492188,8.142501543830413)" style="fill: rgb(53, 53, 53); animation-play-state: running; animation-delay: 0s;"></path></g><g class="path" style="opacity: 1; transform-origin: 58.415px 0.492502px; animation: 1s linear -0.194118s infinite normal forwards running blink-27a77ad9-b927-41d8-880a-0c8bbdb6b5f9;"><path d="M187.08-7.65L187.08-7.65L187.08-7.65Q187.08-6.46 186.76-5.42L186.76-5.42L186.76-5.42Q186.44-4.38 185.88-3.49L185.88-3.49L185.88-3.49Q185.32-2.61 184.53-1.91L184.53-1.91L184.53-1.91Q183.74-1.20 182.80-0.71L182.80-0.71L182.80-0.71Q181.85-0.22 180.78 0.04L180.78 0.04L180.78 0.04Q179.71 0.30 178.57 0.30L178.57 0.30L178.57 0.30Q177.44 0.30 176.37 0.04L176.37 0.04L176.37 0.04Q175.30-0.22 174.36-0.71L174.36-0.71L174.36-0.71Q173.42-1.20 172.63-1.91L172.63-1.91L172.63-1.91Q171.83-2.61 171.27-3.49L171.27-3.49L171.27-3.49Q170.71-4.38 170.40-5.43L170.40-5.43L170.40-5.43Q170.08-6.47 170.08-7.65L170.08-7.65L170.08-7.65Q170.08-8.82 170.40-9.87L170.40-9.87L170.40-9.87Q170.71-10.92 171.27-11.80L171.27-11.80L171.27-11.80Q171.83-12.68 172.63-13.39L172.63-13.39L172.63-13.39Q173.42-14.09 174.36-14.58L174.36-14.58L174.36-14.58Q175.30-15.07 176.37-15.33L176.37-15.33L176.37-15.33Q177.44-15.60 178.57-15.60L178.57-15.60L178.57-15.60Q179.71-15.60 180.78-15.33L180.78-15.33L180.78-15.33Q181.85-15.07 182.80-14.58L182.80-14.58L182.80-14.58Q183.74-14.09 184.53-13.39L184.53-13.39L184.53-13.39Q185.32-12.68 185.88-11.80L185.88-11.80L185.88-11.80Q186.44-10.92 186.76-9.87L186.76-9.87L186.76-9.87Q187.08-8.82 187.08-7.65zM182.54-7.65L182.54-7.65L182.54-7.65Q182.54-8.28 182.47-8.98L182.47-8.98L182.47-8.98Q182.40-9.69 182.22-10.37L182.22-10.37L182.22-10.37Q182.05-11.05 181.76-11.67L181.76-11.67L181.76-11.67Q181.46-12.30 181.02-12.77L181.02-12.77L181.02-12.77Q180.59-13.24 179.98-13.52L179.98-13.52L179.98-13.52Q179.38-13.80 178.57-13.80L178.57-13.80L178.57-13.80Q177.81-13.80 177.21-13.51L177.21-13.51L177.21-13.51Q176.62-13.22 176.18-12.74L176.18-12.74L176.18-12.74Q175.74-12.26 175.44-11.63L175.44-11.63L175.44-11.63Q175.14-11.00 174.96-10.32L174.96-10.32L174.96-10.32Q174.77-9.64 174.70-8.95L174.70-8.95L174.70-8.95Q174.62-8.25 174.62-7.65L174.62-7.65L174.62-7.65Q174.62-7.04 174.70-6.35L174.70-6.35L174.70-6.35Q174.77-5.66 174.96-4.97L174.96-4.97L174.96-4.97Q175.14-4.28 175.44-3.66L175.44-3.66L175.44-3.66Q175.74-3.03 176.18-2.55L176.18-2.55L176.18-2.55Q176.62-2.07 177.21-1.78L177.21-1.78L177.21-1.78Q177.81-1.49 178.57-1.49L178.57-1.49L178.57-1.49Q179.36-1.49 179.97-1.77L179.97-1.77L179.97-1.77Q180.58-2.06 181.02-2.53L181.02-2.53L181.02-2.53Q181.46-3.01 181.75-3.63L181.75-3.63L181.75-3.63Q182.04-4.25 182.22-4.93L182.22-4.93L182.22-4.93Q182.40-5.62 182.47-6.31L182.47-6.31L182.47-6.31Q182.54-7.01 182.54-7.65" fill="#353535" stroke="none" stroke-width="none" transform="translate(-120.16500854492188,8.142501543830413)" style="fill: rgb(102, 102, 102); animation-play-state: running; animation-delay: 0s;"></path></g><g class="path" style="opacity: 1; transform-origin: 76.19px 0.342502px; animation: 1s linear -0.155294s infinite normal forwards running blink-27a77ad9-b927-41d8-880a-0c8bbdb6b5f9;"><path d="M202.83-13.88L202.83-13.88L200.32-9.73L200.32-9.73Q200.17-10.26 199.92-10.92L199.92-10.92L199.92-10.92Q199.67-11.58 199.30-12.15L199.30-12.15L199.30-12.15Q198.93-12.72 198.41-13.11L198.41-13.11L198.41-13.11Q197.90-13.50 197.23-13.50L197.23-13.50L197.23-13.50Q196.61-13.50 196.15-13.18L196.15-13.18L196.15-13.18Q195.70-12.87 195.38-12.36L195.38-12.36L195.38-12.36Q195.06-11.85 194.86-11.21L194.86-11.21L194.86-11.21Q194.66-10.57 194.54-9.92L194.54-9.92L194.54-9.92Q194.43-9.27 194.39-8.67L194.39-8.67L194.39-8.67Q194.35-8.07 194.35-7.63L194.35-7.63L194.35 0L189.88 0L189.88-15.23L191.60-15.23L193.40-11.68L193.40-11.68Q193.77-12.54 194.25-13.26L194.25-13.26L194.25-13.26Q194.72-13.97 195.34-14.50L195.34-14.50L195.34-14.50Q195.96-15.02 196.75-15.31L196.75-15.31L196.75-15.31Q197.53-15.60 198.52-15.60L198.52-15.60L198.52-15.60Q199.03-15.60 199.67-15.51L199.67-15.51L199.67-15.51Q200.30-15.42 200.90-15.22L200.90-15.22L200.90-15.22Q201.51-15.02 202.03-14.69L202.03-14.69L202.03-14.69Q202.54-14.36 202.83-13.88" fill="#353535" stroke="none" stroke-width="none" transform="translate(-120.16500854492188,8.142501543830413)" style="fill: rgb(53, 53, 53); animation-play-state: running; animation-delay: 0s;"></path></g><g class="path" style="opacity: 1; transform-origin: 92px -2.2725px; animation: 1s linear -0.116471s infinite normal forwards running blink-27a77ad9-b927-41d8-880a-0c8bbdb6b5f9;"><path d="M209.14-5.12L209.14 0L204.69 0L204.69-20.83L209.14-20.83L209.14-7.16L209.14-7.16Q210.24-7.95 211.30-8.90L211.30-8.90L211.30-8.90Q212.36-9.85 213.32-10.90L213.32-10.90L213.32-10.90Q214.29-11.94 215.11-13.04L215.11-13.04L215.11-13.04Q215.93-14.13 216.55-15.23L216.55-15.23L219.59-15.23L219.59-15.23Q218.66-13.67 217.40-12.12L217.40-12.12L217.40-12.12Q216.13-10.57 214.64-9.16L214.64-9.16L219.64 0L214.72 0L211.17-6.35L211.17-6.35Q210.19-5.68 209.14-5.12L209.14-5.12" fill="#353535" stroke="none" stroke-width="none" transform="translate(-120.16500854492188,8.142501543830413)" style="fill: rgb(102, 102, 102); animation-play-state: running; animation-delay: 0s;"></path></g><g class="path" style="opacity: 1; transform-origin: 103.705px 6.1725px; animation: 1s linear -0.0776471s infinite normal forwards running blink-27a77ad9-b927-41d8-880a-0c8bbdb6b5f9;"><path d="M226.27-1.98L226.27-1.98L226.27-1.98Q226.27-1.48 226.09-1.03L226.09-1.03L226.09-1.03Q225.90-0.59 225.57-0.27L225.57-0.27L225.57-0.27Q225.24 0.05 224.81 0.24L224.81 0.24L224.81 0.24Q224.37 0.44 223.87 0.44L223.87 0.44L223.87 0.44Q223.37 0.44 222.93 0.24L222.93 0.24L222.93 0.24Q222.50 0.05 222.17-0.27L222.17-0.27L222.17-0.27Q221.84-0.59 221.66-1.03L221.66-1.03L221.66-1.03Q221.47-1.48 221.47-1.98L221.47-1.98L221.47-1.98Q221.47-2.47 221.66-2.91L221.66-2.91L221.66-2.91Q221.84-3.35 222.17-3.67L222.17-3.67L222.17-3.67Q222.50-3.99 222.93-4.19L222.93-4.19L222.93-4.19Q223.37-4.38 223.87-4.38L223.87-4.38L223.87-4.38Q224.37-4.38 224.81-4.19L224.81-4.19L224.81-4.19Q225.24-3.99 225.57-3.67L225.57-3.67L225.57-3.67Q225.90-3.35 226.09-2.91L226.09-2.91L226.09-2.91Q226.27-2.47 226.27-1.98" fill="#353535" stroke="none" stroke-width="none" transform="translate(-120.16500854492188,8.142501543830413)" style="fill: rgb(53, 53, 53); animation-play-state: running; animation-delay: 0s;"></path></g><g class="path" style="opacity: 1; transform-origin: 111.275px 6.1725px; animation: 1s linear -0.0388235s infinite normal forwards running blink-27a77ad9-b927-41d8-880a-0c8bbdb6b5f9;"><path d="M233.84-1.98L233.84-1.98L233.84-1.98Q233.84-1.48 233.65-1.03L233.65-1.03L233.65-1.03Q233.47-0.59 233.14-0.27L233.14-0.27L233.14-0.27Q232.81 0.05 232.37 0.24L232.37 0.24L232.37 0.24Q231.94 0.44 231.44 0.44L231.44 0.44L231.44 0.44Q230.94 0.44 230.50 0.24L230.50 0.24L230.50 0.24Q230.07 0.05 229.74-0.27L229.74-0.27L229.74-0.27Q229.41-0.59 229.22-1.03L229.22-1.03L229.22-1.03Q229.04-1.48 229.04-1.98L229.04-1.98L229.04-1.98Q229.04-2.47 229.22-2.91L229.22-2.91L229.22-2.91Q229.41-3.35 229.74-3.67L229.74-3.67L229.74-3.67Q230.07-3.99 230.50-4.19L230.50-4.19L230.50-4.19Q230.94-4.38 231.44-4.38L231.44-4.38L231.44-4.38Q231.94-4.38 232.37-4.19L232.37-4.19L232.37-4.19Q232.81-3.99 233.14-3.67L233.14-3.67L233.14-3.67Q233.47-3.35 233.65-2.91L233.65-2.91L233.65-2.91Q233.84-2.47 233.84-1.98" fill="#353535" stroke="none" stroke-width="none" transform="translate(-120.16500854492188,8.142501543830413)" style="fill: rgb(102, 102, 102); animation-play-state: running; animation-delay: 0s;"></path></g><g class="path" style="opacity: 1; transform-origin: 118.84px 6.1725px; animation: 1s linear 0s infinite normal forwards running blink-27a77ad9-b927-41d8-880a-0c8bbdb6b5f9;"><path d="M241.40-1.98L241.40-1.98L241.40-1.98Q241.40-1.48 241.22-1.03L241.22-1.03L241.22-1.03Q241.04-0.59 240.71-0.27L240.71-0.27L240.71-0.27Q240.38 0.05 239.94 0.24L239.94 0.24L239.94 0.24Q239.51 0.44 239.01 0.44L239.01 0.44L239.01 0.44Q238.50 0.44 238.07 0.24L238.07 0.24L238.07 0.24Q237.63 0.05 237.30-0.27L237.30-0.27L237.30-0.27Q236.98-0.59 236.79-1.03L236.79-1.03L236.79-1.03Q236.61-1.48 236.61-1.98L236.61-1.98L236.61-1.98Q236.61-2.47 236.79-2.91L236.79-2.91L236.79-2.91Q236.98-3.35 237.30-3.67L237.30-3.67L237.30-3.67Q237.63-3.99 238.07-4.19L238.07-4.19L238.07-4.19Q238.50-4.38 239.01-4.38L239.01-4.38L239.01-4.38Q239.51-4.38 239.94-4.19L239.94-4.19L239.94-4.19Q240.38-3.99 240.71-3.67L240.71-3.67L240.71-3.67Q241.04-3.35 241.22-2.91L241.22-2.91L241.22-2.91Q241.40-2.47 241.40-1.98" fill="#353535" stroke="none" stroke-width="none" transform="translate(-120.16500854492188,8.142501543830413)" style="fill: rgb(53, 53, 53); animation-play-state: running; animation-delay: 0s;"></path></g></g>
</g>
</g>
<style id="blink-27a77ad9-b927-41d8-880a-0c8bbdb6b5f9" data-anikit="">@keyframes blink-27a77ad9-b927-41d8-880a-0c8bbdb6b5f9 {
  0% { opacity: 1; }
  49.75% { opacity: 1; }
  50.25% { opacity: 0; }
  99.5% { opacity: 0; }
  100% { opacity: 1; }
}</style></svg>